<?xml version="1.0" encoding="UTF-8" standalone="no"?>
<svg
   xmlns:dc="http://purl.org/dc/elements/1.1/"
   xmlns:cc="http://creativecommons.org/ns#"
   xmlns:rdf="http://www.w3.org/1999/02/22-rdf-syntax-ns#"
   xmlns:svg="http://www.w3.org/2000/svg"
   xmlns="http://www.w3.org/2000/svg"
   xmlns:sodipodi="http://sodipodi.sourceforge.net/DTD/sodipodi-0.dtd"
   xmlns:inkscape="http://www.inkscape.org/namespaces/inkscape"
   id="Layer_3"
   enable-background="new 0 0 64 64"
   height="512"
   viewBox="0 0 64 64"
   width="512"
   version="1.1"
   sodipodi:docname="dice1.svg"
   inkscape:version="0.92.3 (2405546, 2018-03-11)">
  <metadata
     id="metadata47">
    <rdf:RDF>
      <cc:Work
         rdf:about="">
        <dc:format>image/svg+xml</dc:format>
        <dc:type
           rdf:resource="http://purl.org/dc/dcmitype/StillImage" />
        <dc:title></dc:title>
      </cc:Work>
    </rdf:RDF>
  </metadata>
  <defs
     id="defs45" />
  <sodipodi:namedview
     pagecolor="#ffffff"
     bordercolor="#666666"
     borderopacity="1"
     objecttolerance="10"
     gridtolerance="10"
     guidetolerance="10"
     inkscape:pageopacity="0"
     inkscape:pageshadow="2"
     inkscape:window-width="1920"
     inkscape:window-height="1024"
     id="namedview43"
     showgrid="false"
     inkscape:zoom="0.65186406"
     inkscape:cx="808.34949"
     inkscape:cy="334.43197"
     inkscape:window-x="0"
     inkscape:window-y="0"
     inkscape:window-maximized="1"
     inkscape:current-layer="Layer_3" />
  <g
     id="g40"
     transform="translate(-24.135593,-12.474576)">
    <path
       d="M 23.064284,-3.1302469 V -23.130247 c 0,-2.209 1.791,-4 4,-4 h 28 c 2.209,0 4,1.791 4,4 V 4.8697531 c 0,2.209 -1.791,4 -4,4 h -20"
       id="path2"
       inkscape:connector-curvature="0"
       style="fill:#758190" />
    <path
       d="M 26.064284,-3.1302469 V -22.130247 c 0,-1.105 0.895,-2 2,-2 h 26 c 1.105,0 2,0.895 2,2 V 3.8697531 c 0,1.105 -0.895,2 -2,2 h -19"
       id="path4"
       inkscape:connector-curvature="0"
       style="fill:#d5cec2" />
    <path
       d="M 23.064284,-23.130247 V 4.8697531 c 0,2.209 1.791,4 4,4 h 7.58 c 11.132,-3.14 19.294,-13.363 19.294,-25.5000001 0,-3.731 -0.775,-7.28 -2.166,-10.5 h -24.708 c -2.209,0 -4,1.791 -4,4 z"
       id="path6"
       inkscape:connector-curvature="0"
       style="fill:#8892a0" />
    <path
       d="M 26.064284,-22.130247 V 3.8697531 c 0,1.105 0.895,2 2,2 h 13.37 c 7.506,-4.679 12.504,-13.004 12.504,-22.5000001 0,-2.606 -0.383,-5.121 -1.083,-7.5 h -24.791 c -1.105,0 -2,0.895 -2,2 z"
       id="path8"
       inkscape:connector-curvature="0"
       style="fill:#e7e4dd" />
    <circle
       cx="41.064285"
       cy="-9.1302462"
       r="3"
       id="circle14"
       style="fill:#e47c6e" />
    <path
       style="fill:#758190"
       inkscape:connector-curvature="0"
       id="path854"
       d="M 65.634509,-3.1302469 V -23.130247 c 0,-2.209 1.791,-4 4,-4 h 28 c 2.209,0 4.000001,1.791 4.000001,4 V 4.8697531 c 0,2.209 -1.791001,4 -4.000001,4 h -20" />
    <path
       style="fill:#d5cec2"
       inkscape:connector-curvature="0"
       id="path856"
       d="M 68.634509,-3.1302469 V -22.130247 c 0,-1.105 0.895,-2 2,-2 h 26 c 1.105,0 2,0.895 2,2 V 3.8697531 c 0,1.105 -0.895,2 -2,2 h -19" />
    <path
       style="fill:#8892a0"
       inkscape:connector-curvature="0"
       id="path858"
       d="M 65.634509,-23.130247 V 4.8697531 c 0,2.209 1.791,4 4,4 h 7.58 c 11.132,-3.14 19.294,-13.363 19.294,-25.5000001 0,-3.731 -0.775,-7.28 -2.166,-10.5 h -24.708 c -2.209,0 -4,1.791 -4,4 z" />
    <path
       style="fill:#e7e4dd"
       inkscape:connector-curvature="0"
       id="path860"
       d="M 68.634509,-22.130247 V 3.8697531 c 0,1.105 0.895,2 2,2 h 13.37 c 7.506,-4.679 12.504,-13.004 12.504,-22.5000001 0,-2.606 -0.383,-5.121 -1.083,-7.5 h -24.791 c -1.105,0 -2,0.895 -2,2 z" />
    <circle
       style="fill:#e47c6e"
       id="circle862"
       r="3"
       cy="-17.130247"
       cx="75.634506" />
    <circle
       style="fill:#c66b60"
       id="circle864"
       r="3"
       cy="-1.1302474"
       cx="91.634514" />
    <path
       d="M 107.62946,-3.7055202 V -23.70552 c 0,-2.209 1.791,-4 4,-4 h 28 c 2.209,0 4,1.791 4,4 V 4.2944798 c 0,2.209 -1.791,4 -4,4 h -20"
       id="path868"
       inkscape:connector-curvature="0"
       style="fill:#758190" />
    <path
       d="M 110.62946,-3.7055202 V -22.70552 c 0,-1.105 0.895,-2 2,-2 h 26 c 1.105,0 2,0.895 2,2 V 3.2944798 c 0,1.105 -0.895,2 -2,2 h -19"
       id="path870"
       inkscape:connector-curvature="0"
       style="fill:#d5cec2" />
    <path
       d="M 107.62946,-23.70552 V 4.2944798 c 0,2.209 1.791,4 4,4 h 7.58 c 11.132,-3.14 19.294,-13.363 19.294,-25.4999998 0,-3.731 -0.775,-7.28 -2.166,-10.5 h -24.708 c -2.209,0 -4,1.791 -4,4 z"
       id="path872"
       inkscape:connector-curvature="0"
       style="fill:#8892a0" />
    <path
       d="M 110.62946,-22.70552 V 3.2944798 c 0,1.105 0.895,2 2,2 h 13.37 c 7.506,-4.67900001 12.504,-13.004 12.504,-22.4999998 0,-2.606 -0.383,-5.121 -1.083,-7.5 h -24.791 c -1.105,0 -2,0.895 -2,2 z"
       id="path874"
       inkscape:connector-curvature="0"
       style="fill:#e7e4dd" />
    <circle
       cx="117.62946"
       cy="-17.705521"
       r="3"
       id="circle876"
       style="fill:#e47c6e" />
    <circle
       cx="133.62947"
       cy="-1.7055206"
       r="3"
       id="circle878"
       style="fill:#c66b60" />
    <circle
       cx="125.62946"
       cy="-9.7055197"
       r="3"
       id="circle880"
       style="fill:#e47c6e" />
    <path
       style="fill:#758190"
       inkscape:connector-curvature="0"
       id="path882"
       d="m 23.256041,37.905916 v -20 c 0,-2.209 1.791,-4 4,-4 h 28 c 2.209,0 4,1.791 4,4 v 28 c 0,2.209 -1.791,4 -4,4 h -20" />
    <path
       style="fill:#d5cec2"
       inkscape:connector-curvature="0"
       id="path884"
       d="m 26.256041,37.905916 v -19 c 0,-1.105 0.895,-2 2,-2 h 26 c 1.105,0 2,0.895 2,2 v 26 c 0,1.105 -0.895,2 -2,2 h -19" />
    <path
       style="fill:#8892a0"
       inkscape:connector-curvature="0"
       id="path886"
       d="m 23.256041,17.905916 v 28 c 0,2.209 1.791,4 4,4 h 7.58 c 11.132,-3.14 19.294,-13.363 19.294,-25.5 0,-3.731 -0.775,-7.28 -2.166,-10.5 h -24.708 c -2.209,0 -4,1.791 -4,4 z" />
    <path
       style="fill:#e7e4dd"
       inkscape:connector-curvature="0"
       id="path888"
       d="m 26.256041,18.905916 v 26 c 0,1.105 0.895,2 2,2 h 13.37 c 7.506,-4.679 12.504,-13.004 12.504,-22.5 0,-2.606 -0.383,-5.121 -1.083,-7.5 h -24.791 c -1.105,0 -2,0.895 -2,2 z" />
    <circle
       style="fill:#e47c6e"
       id="circle890"
       r="3"
       cy="23.905916"
       cx="33.256042" />
    <circle
       style="fill:#c66b60"
       id="circle892"
       r="3"
       cy="39.905914"
       cx="49.25605" />
    <circle
       style="fill:#e47c6e"
       id="circle894"
       r="3"
       cy="23.905916"
       cx="49.256042" />
    <path
       d="m 66.593297,36.371854 v -20 c 0,-2.209 1.791,-4 4,-4 h 28 c 2.209003,0 4.000003,1.791 4.000003,4 v 28 c 0,2.209 -1.791,4 -4.000003,4 h -20"
       id="path896"
       inkscape:connector-curvature="0"
       style="fill:#758190" />
    <path
       d="m 69.593297,36.371854 v -19 c 0,-1.105 0.895,-2 2,-2 h 26 c 1.105,0 2,0.895 2,2 v 26 c 0,1.105 -0.895,2 -2,2 h -19"
       id="path898"
       inkscape:connector-curvature="0"
       style="fill:#d5cec2" />
    <path
       d="m 66.593297,16.371854 v 28 c 0,2.209 1.791,4 4,4 h 7.58 c 11.132,-3.14 19.294,-13.363 19.294,-25.5 0,-3.731 -0.775,-7.28 -2.166,-10.5 h -24.708 c -2.209,0 -4,1.791 -4,4 z"
       id="path900"
       inkscape:connector-curvature="0"
       style="fill:#8892a0" />
    <path
       d="m 69.593297,17.371854 v 26 c 0,1.105 0.895,2 2,2 h 13.37 c 7.506,-4.679 12.504,-13.004 12.504,-22.5 0,-2.606 -0.383,-5.121 -1.083,-7.5 h -24.791 c -1.105,0 -2,0.895 -2,2 z"
       id="path902"
       inkscape:connector-curvature="0"
       style="fill:#e7e4dd" />
    <circle
       cx="76.5933"
       cy="22.371855"
       r="3"
       id="circle904"
       style="fill:#e47c6e" />
    <circle
       cx="92.593307"
       cy="38.371853"
       r="3"
       id="circle906"
       style="fill:#c66b60" />
    <circle
       cx="84.5933"
       cy="30.371855"
       r="3"
       id="circle908"
       style="fill:#e47c6e" />
    <path
       style="fill:#758190"
       inkscape:connector-curvature="0"
       id="path910"
       d="m 108.58825,36.180096 v -20 c 0,-2.209 1.791,-4 4,-4 h 28 c 2.209,0 4,1.791 4,4 v 28 c 0,2.209 -1.791,4 -4,4 h -20" />
    <path
       style="fill:#d5cec2"
       inkscape:connector-curvature="0"
       id="path912"
       d="m 111.58825,36.180096 v -19 c 0,-1.105 0.895,-2 2,-2 h 26 c 1.105,0 2,0.895 2,2 v 26 c 0,1.105 -0.895,2 -2,2 h -19" />
    <path
       style="fill:#8892a0"
       inkscape:connector-curvature="0"
       id="path914"
       d="m 108.58825,16.180096 v 28 c 0,2.209 1.791,4 4,4 h 7.58 c 11.132,-3.14 19.294,-13.363 19.294,-25.5 0,-3.731 -0.775,-7.28 -2.166,-10.5 h -24.708 c -2.209,0 -4,1.791 -4,4 z" />
    <path
       style="fill:#e7e4dd"
       inkscape:connector-curvature="0"
       id="path916"
       d="m 111.58825,17.180096 v 26 c 0,1.105 0.895,2 2,2 h 13.37 c 7.506,-4.679 12.504,-13.004 12.504,-22.5 0,-2.606 -0.383,-5.121 -1.083,-7.5 h -24.791 c -1.105,0 -2,0.895 -2,2 z" />
    <circle
       style="fill:#e47c6e"
       id="circle918"
       r="3"
       cy="22.180098"
       cx="118.58825" />
    <circle
       style="fill:#c66b60"
       id="circle920"
       r="3"
       cy="38.180096"
       cx="134.58826" />
    <circle
       style="fill:#e47c6e"
       id="circle922"
       r="3"
       cy="30.180098"
       cx="118.58825" />
    <circle
       cx="33.006042"
       cy="40.155914"
       r="3"
       id="circle924"
       style="fill:#e47c6e" />
    <circle
       cx="92.506042"
       cy="22.405916"
       r="3"
       id="circle926"
       style="fill:#e47c6e" />
    <circle
       style="fill:#e47c6e"
       id="circle928"
       r="3"
       cy="38.655914"
       cx="76.256042" />
    <circle
       cx="118.58825"
       cy="38.430099"
       r="3"
       id="circle930"
       style="fill:#e47c6e" />
    <circle
       cx="134.58826"
       cy="30.180096"
       r="3"
       id="circle932"
       style="fill:#c66b60" />
    <circle
       style="fill:#c66b60"
       id="circle934"
       r="3"
       cy="22.180096"
       cx="134.58826" />
  </g>
</svg>
