<?xml version="1.0" encoding="UTF-8" standalone="no"?>
<!-- Created with Inkscape (http://www.inkscape.org/) -->

<svg
   xmlns:dc="http://purl.org/dc/elements/1.1/"
   xmlns:cc="http://creativecommons.org/ns#"
   xmlns:rdf="http://www.w3.org/1999/02/22-rdf-syntax-ns#"
   xmlns:svg="http://www.w3.org/2000/svg"
   xmlns="http://www.w3.org/2000/svg"
   xmlns:sodipodi="http://sodipodi.sourceforge.net/DTD/sodipodi-0.dtd"
   xmlns:inkscape="http://www.inkscape.org/namespaces/inkscape"
   version="1.1"
   id="svg2"
   xml:space="preserve"
   width="1066.6667"
   height="1066.6667"
   viewBox="0 0 1066.6667 1066.6667"
   sodipodi:docname="dice3.ai.svg"
   inkscape:version="0.92.3 (2405546, 2018-03-11)"><metadata
     id="metadata8"><rdf:RDF><cc:Work
         rdf:about=""><dc:format>image/svg+xml</dc:format><dc:type
           rdf:resource="http://purl.org/dc/dcmitype/StillImage" /><dc:title></dc:title></cc:Work></rdf:RDF></metadata><defs
     id="defs6"><clipPath
       clipPathUnits="userSpaceOnUse"
       id="clipPath20"><path
         d="M 0,800 H 800 V 0 H 0 Z"
         id="path18"
         inkscape:connector-curvature="0" /></clipPath><clipPath
       clipPathUnits="userSpaceOnUse"
       id="clipPath96"><path
         d="M 39.5237,750.475 H 150 V 545.451 H 39.5237 Z"
         id="path94"
         inkscape:connector-curvature="0" /></clipPath><clipPath
       clipPathUnits="userSpaceOnUse"
       id="clipPath180"><path
         d="M 289.568,764.437 H 395 V 564.426 H 289.568 Z"
         id="path178"
         inkscape:connector-curvature="0" /></clipPath><clipPath
       clipPathUnits="userSpaceOnUse"
       id="clipPath316"><path
         d="M 549.427,756.099 H 642 V 556.417 h -92.573 z"
         id="path314"
         inkscape:connector-curvature="0" /></clipPath><clipPath
       clipPathUnits="userSpaceOnUse"
       id="clipPath400"><path
         d="m 335.986,256.565 h 16.94 v -18.686 h -16.94 z"
         id="path398"
         inkscape:connector-curvature="0" /></clipPath><clipPath
       clipPathUnits="userSpaceOnUse"
       id="clipPath416"><path
         d="M 322.077,303 H 396 V 74.3062 h -73.923 z"
         id="path414"
         inkscape:connector-curvature="0" /></clipPath><clipPath
       clipPathUnits="userSpaceOnUse"
       id="clipPath524"><path
         d="M 550.027,284.459 H 641 V 62.8055 h -90.973 z"
         id="path522"
         inkscape:connector-curvature="0" /></clipPath><clipPath
       clipPathUnits="userSpaceOnUse"
       id="clipPath616"><path
         d="M 55.8252,517.465 H 149 V 324.238 H 55.8252 Z"
         id="path614"
         inkscape:connector-curvature="0" /></clipPath><clipPath
       clipPathUnits="userSpaceOnUse"
       id="clipPath752"><path
         d="M 318.417,539.128 H 394 V 333.749 h -75.583 z"
         id="path750"
         inkscape:connector-curvature="0" /></clipPath><clipPath
       clipPathUnits="userSpaceOnUse"
       id="clipPath912"><path
         d="M 0,800 H 800 V 0 H 0 Z"
         id="path910"
         inkscape:connector-curvature="0" /></clipPath></defs><sodipodi:namedview
     pagecolor="#ffffff"
     bordercolor="#666666"
     borderopacity="1"
     objecttolerance="10"
     gridtolerance="10"
     guidetolerance="10"
     inkscape:pageopacity="0"
     inkscape:pageshadow="2"
     inkscape:window-width="1920"
     inkscape:window-height="1024"
     id="namedview4"
     showgrid="false"
     inkscape:zoom="0.62578945"
     inkscape:cx="764.69193"
     inkscape:cy="689.23469"
     inkscape:window-x="0"
     inkscape:window-y="0"
     inkscape:window-maximized="1"
     inkscape:current-layer="g10" /><g
     id="g10"
     inkscape:groupmode="layer"
     inkscape:label="72730-ODXCZH-250"
     transform="matrix(1.3333333,0,0,-1.3333333,0,1066.6667)"><g
       id="g1911"
       transform="translate(-930.02529,529.73089)"
       inkscape:transform-center-x="-465.01261"
       inkscape:transform-center-y="330.78217"><g
         transform="translate(1059.4643,233.64451)"
         id="g782"><path
           inkscape:connector-curvature="0"
           id="path784"
           style="fill:#d3d3d3;fill-opacity:1;fill-rule:nonzero;stroke:none"
           d="m 0,0 c -0.724,12.938 -17.267,13.34 -26.861,13.542 -8.682,0.182 -17.363,0.03 -26.036,-0.355 -1.945,-0.086 -3.888,-0.185 -5.832,-0.293 -0.18,-38.424 -1.09,-76.831 2.128,-115.04 12.22,0.135 24.436,0.569 36.712,0.555 11.751,-0.012 18.164,4.51 19.815,17.107 C 3.593,-56.494 1.57,-28.068 0,0" /></g><g
         transform="translate(1000.7356,246.53831)"
         id="g786"><path
           inkscape:connector-curvature="0"
           id="path788"
           style="fill:#bababa;fill-opacity:1;fill-rule:nonzero;stroke:none"
           d="m 0,0 c -6.077,-0.339 -12.148,-0.779 -18.21,-1.287 -10.959,-0.918 -26.943,0.376 -34.218,-9.73 -5.182,-7.198 -3.039,-21.651 -3.149,-30.044 -0.242,-18.311 0.504,-36.59 2.823,-54.762 1.787,-13.926 9.999,-17.383 22.923,-18.393 10.684,-0.834 21.323,-0.942 31.958,-0.824 C -1.091,-76.83 -0.181,-38.424 0,0" /></g><g
         transform="translate(999.30678,199.06971)"
         id="g806"><path
           inkscape:connector-curvature="0"
           id="path808"
           style="fill:#636363;fill-opacity:1;fill-rule:nonzero;stroke:none"
           d="m 0,0 c -6.096,-2.902 -10.76,-10.519 -7.954,-17.135 1.449,-3.418 3.941,-4.173 7.214,-5.597 3.538,-1.539 5.642,-0.982 9.255,-0.075 10.412,2.613 9.599,16.604 1.683,21.748 C 6.206,1.535 4.506,0.411 0,0" /></g></g><g
       inkscape:transform-center-y="330.78217"
       inkscape:transform-center-x="-465.01261"
       transform="translate(-792.19938,530.92938)"
       id="g1941"><g
         id="g1915"
         transform="translate(1059.4643,233.64451)"><path
           d="m 0,0 c -0.724,12.938 -17.267,13.34 -26.861,13.542 -8.682,0.182 -17.363,0.03 -26.036,-0.355 -1.945,-0.086 -3.888,-0.185 -5.832,-0.293 -0.18,-38.424 -1.09,-76.831 2.128,-115.04 12.22,0.135 24.436,0.569 36.712,0.555 11.751,-0.012 18.164,4.51 19.815,17.107 C 3.593,-56.494 1.57,-28.068 0,0"
           style="fill:#d3d3d3;fill-opacity:1;fill-rule:nonzero;stroke:none"
           id="path1913"
           inkscape:connector-curvature="0" /></g><g
         id="g1919"
         transform="translate(1000.7356,246.53831)"><path
           d="m 0,0 c -6.077,-0.339 -12.148,-0.779 -18.21,-1.287 -10.959,-0.918 -26.943,0.376 -34.218,-9.73 -5.182,-7.198 -3.039,-21.651 -3.149,-30.044 -0.242,-18.311 0.504,-36.59 2.823,-54.762 1.787,-13.926 9.999,-17.383 22.923,-18.393 10.684,-0.834 21.323,-0.942 31.958,-0.824 C -1.091,-76.83 -0.181,-38.424 0,0"
           style="fill:#bababa;fill-opacity:1;fill-rule:nonzero;stroke:none"
           id="path1917"
           inkscape:connector-curvature="0" /></g><g
         id="g1923"
         transform="translate(972.66698,224.04451)"><path
           d="m 0,0 c -6.096,-2.902 -10.76,-10.519 -7.954,-17.135 1.449,-3.418 3.941,-4.173 7.214,-5.597 3.538,-1.539 5.642,-0.982 9.255,-0.075 10.412,2.613 9.599,16.604 1.683,21.748 C 6.206,1.535 4.506,0.411 0,0"
           style="fill:#636363;fill-opacity:1;fill-rule:nonzero;stroke:none"
           id="path1921"
           inkscape:connector-curvature="0" /></g><g
         id="g1935"
         transform="translate(1028.8604,173.26241)"><path
           d="m 0,0 c -6.096,-2.902 -10.76,-10.519 -7.954,-17.135 1.449,-3.418 3.941,-4.173 7.214,-5.597 3.538,-1.539 5.642,-0.982 9.255,-0.075 10.412,2.613 9.599,16.604 1.683,21.748 C 6.206,1.535 4.506,0.411 0,0"
           style="fill:#636363;fill-opacity:1;fill-rule:nonzero;stroke:none"
           id="path1933"
           inkscape:connector-curvature="0" /></g></g><g
       id="g1971"
       transform="translate(-654.37347,532.12787)"
       inkscape:transform-center-x="-465.01261"
       inkscape:transform-center-y="330.78217"><g
         transform="translate(1059.4643,233.64451)"
         id="g1945"><path
           inkscape:connector-curvature="0"
           id="path1943"
           style="fill:#d3d3d3;fill-opacity:1;fill-rule:nonzero;stroke:none"
           d="m 0,0 c -0.724,12.938 -17.267,13.34 -26.861,13.542 -8.682,0.182 -17.363,0.03 -26.036,-0.355 -1.945,-0.086 -3.888,-0.185 -5.832,-0.293 -0.18,-38.424 -1.09,-76.831 2.128,-115.04 12.22,0.135 24.436,0.569 36.712,0.555 11.751,-0.012 18.164,4.51 19.815,17.107 C 3.593,-56.494 1.57,-28.068 0,0" /></g><g
         transform="translate(1000.7356,246.53831)"
         id="g1949"><path
           inkscape:connector-curvature="0"
           id="path1947"
           style="fill:#bababa;fill-opacity:1;fill-rule:nonzero;stroke:none"
           d="m 0,0 c -6.077,-0.339 -12.148,-0.779 -18.21,-1.287 -10.959,-0.918 -26.943,0.376 -34.218,-9.73 -5.182,-7.198 -3.039,-21.651 -3.149,-30.044 -0.242,-18.311 0.504,-36.59 2.823,-54.762 1.787,-13.926 9.999,-17.383 22.923,-18.393 10.684,-0.834 21.323,-0.942 31.958,-0.824 C -1.091,-76.83 -0.181,-38.424 0,0" /></g><g
         transform="translate(972.66698,224.04451)"
         id="g1953"><path
           inkscape:connector-curvature="0"
           id="path1951"
           style="fill:#636363;fill-opacity:1;fill-rule:nonzero;stroke:none"
           d="m 0,0 c -6.096,-2.902 -10.76,-10.519 -7.954,-17.135 1.449,-3.418 3.941,-4.173 7.214,-5.597 3.538,-1.539 5.642,-0.982 9.255,-0.075 10.412,2.613 9.599,16.604 1.683,21.748 C 6.206,1.535 4.506,0.411 0,0" /></g><g
         transform="translate(1028.8604,173.26241)"
         id="g1965"><path
           inkscape:connector-curvature="0"
           id="path1963"
           style="fill:#636363;fill-opacity:1;fill-rule:nonzero;stroke:none"
           d="m 0,0 c -6.096,-2.902 -10.76,-10.519 -7.954,-17.135 1.449,-3.418 3.941,-4.173 7.214,-5.597 3.538,-1.539 5.642,-0.982 9.255,-0.075 10.412,2.613 9.599,16.604 1.683,21.748 C 6.206,1.535 4.506,0.411 0,0" /></g><g
         transform="translate(999.30678,199.06971)"
         id="g1969"><path
           inkscape:connector-curvature="0"
           id="path1967"
           style="fill:#636363;fill-opacity:1;fill-rule:nonzero;stroke:none"
           d="m 0,0 c -6.096,-2.902 -10.76,-10.519 -7.954,-17.135 1.449,-3.418 3.941,-4.173 7.214,-5.597 3.538,-1.539 5.642,-0.982 9.255,-0.075 10.412,2.613 9.599,16.604 1.683,21.748 C 6.206,1.535 4.506,0.411 0,0" /></g></g><g
       inkscape:transform-center-y="330.78217"
       inkscape:transform-center-x="-465.01261"
       transform="translate(-515.34907,530.92938)"
       id="g2001"><g
         id="g1975"
         transform="translate(1059.4643,233.64451)"><path
           d="m 0,0 c -0.724,12.938 -17.267,13.34 -26.861,13.542 -8.682,0.182 -17.363,0.03 -26.036,-0.355 -1.945,-0.086 -3.888,-0.185 -5.832,-0.293 -0.18,-38.424 -1.09,-76.831 2.128,-115.04 12.22,0.135 24.436,0.569 36.712,0.555 11.751,-0.012 18.164,4.51 19.815,17.107 C 3.593,-56.494 1.57,-28.068 0,0"
           style="fill:#d3d3d3;fill-opacity:1;fill-rule:nonzero;stroke:none"
           id="path1973"
           inkscape:connector-curvature="0" /></g><g
         id="g1979"
         transform="translate(1000.7356,246.53831)"><path
           d="m 0,0 c -6.077,-0.339 -12.148,-0.779 -18.21,-1.287 -10.959,-0.918 -26.943,0.376 -34.218,-9.73 -5.182,-7.198 -3.039,-21.651 -3.149,-30.044 -0.242,-18.311 0.504,-36.59 2.823,-54.762 1.787,-13.926 9.999,-17.383 22.923,-18.393 10.684,-0.834 21.323,-0.942 31.958,-0.824 C -1.091,-76.83 -0.181,-38.424 0,0"
           style="fill:#bababa;fill-opacity:1;fill-rule:nonzero;stroke:none"
           id="path1977"
           inkscape:connector-curvature="0" /></g><g
         id="g1983"
         transform="translate(972.66698,224.04451)"><path
           d="m 0,0 c -6.096,-2.902 -10.76,-10.519 -7.954,-17.135 1.449,-3.418 3.941,-4.173 7.214,-5.597 3.538,-1.539 5.642,-0.982 9.255,-0.075 10.412,2.613 9.599,16.604 1.683,21.748 C 6.206,1.535 4.506,0.411 0,0"
           style="fill:#636363;fill-opacity:1;fill-rule:nonzero;stroke:none"
           id="path1981"
           inkscape:connector-curvature="0" /></g><g
         id="g1987"
         transform="translate(1025.9466,224.87701)"><path
           d="m 0,0 c -6.096,-2.902 -10.76,-10.519 -7.954,-17.135 1.449,-3.418 3.941,-4.173 7.214,-5.597 3.538,-1.539 5.642,-0.982 9.255,-0.075 10.412,2.613 9.599,16.604 1.683,21.748 C 6.206,1.535 4.506,0.411 0,0"
           style="fill:#636363;fill-opacity:1;fill-rule:nonzero;stroke:none"
           id="path1985"
           inkscape:connector-curvature="0" /></g><g
         id="g1991"
         transform="translate(974.33198,173.26241)"><path
           d="m 0,0 c -6.096,-2.902 -10.76,-10.519 -7.954,-17.135 1.449,-3.418 3.941,-4.173 7.214,-5.597 3.538,-1.539 5.642,-0.982 9.255,-0.075 10.412,2.613 9.599,16.604 1.683,21.748 C 6.206,1.535 4.506,0.411 0,0"
           style="fill:#636363;fill-opacity:1;fill-rule:nonzero;stroke:none"
           id="path1989"
           inkscape:connector-curvature="0" /></g><g
         id="g1995"
         transform="translate(1028.8604,173.26241)"><path
           d="m 0,0 c -6.096,-2.902 -10.76,-10.519 -7.954,-17.135 1.449,-3.418 3.941,-4.173 7.214,-5.597 3.538,-1.539 5.642,-0.982 9.255,-0.075 10.412,2.613 9.599,16.604 1.683,21.748 C 6.206,1.535 4.506,0.411 0,0"
           style="fill:#636363;fill-opacity:1;fill-rule:nonzero;stroke:none"
           id="path1993"
           inkscape:connector-curvature="0" /></g></g><g
       inkscape:transform-center-y="330.78217"
       inkscape:transform-center-x="-465.01261"
       transform="translate(-927.62832,395.50045)"
       id="g2061"><g
         id="g2035"
         transform="translate(1059.4643,233.64451)"><path
           d="m 0,0 c -0.724,12.938 -17.267,13.34 -26.861,13.542 -8.682,0.182 -17.363,0.03 -26.036,-0.355 -1.945,-0.086 -3.888,-0.185 -5.832,-0.293 -0.18,-38.424 -1.09,-76.831 2.128,-115.04 12.22,0.135 24.436,0.569 36.712,0.555 11.751,-0.012 18.164,4.51 19.815,17.107 C 3.593,-56.494 1.57,-28.068 0,0"
           style="fill:#d3d3d3;fill-opacity:1;fill-rule:nonzero;stroke:none"
           id="path2033"
           inkscape:connector-curvature="0" /></g><g
         id="g2039"
         transform="translate(1000.7356,246.53831)"><path
           d="m 0,0 c -6.077,-0.339 -12.148,-0.779 -18.21,-1.287 -10.959,-0.918 -26.943,0.376 -34.218,-9.73 -5.182,-7.198 -3.039,-21.651 -3.149,-30.044 -0.242,-18.311 0.504,-36.59 2.823,-54.762 1.787,-13.926 9.999,-17.383 22.923,-18.393 10.684,-0.834 21.323,-0.942 31.958,-0.824 C -1.091,-76.83 -0.181,-38.424 0,0"
           style="fill:#bababa;fill-opacity:1;fill-rule:nonzero;stroke:none"
           id="path2037"
           inkscape:connector-curvature="0" /></g><g
         id="g2043"
         transform="translate(972.66698,224.04451)"><path
           d="m 0,0 c -6.096,-2.902 -10.76,-10.519 -7.954,-17.135 1.449,-3.418 3.941,-4.173 7.214,-5.597 3.538,-1.539 5.642,-0.982 9.255,-0.075 10.412,2.613 9.599,16.604 1.683,21.748 C 6.206,1.535 4.506,0.411 0,0"
           style="fill:#636363;fill-opacity:1;fill-rule:nonzero;stroke:none"
           id="path2041"
           inkscape:connector-curvature="0" /></g><g
         id="g2047"
         transform="translate(1025.9466,224.87701)"><path
           d="m 0,0 c -6.096,-2.902 -10.76,-10.519 -7.954,-17.135 1.449,-3.418 3.941,-4.173 7.214,-5.597 3.538,-1.539 5.642,-0.982 9.255,-0.075 10.412,2.613 9.599,16.604 1.683,21.748 C 6.206,1.535 4.506,0.411 0,0"
           style="fill:#636363;fill-opacity:1;fill-rule:nonzero;stroke:none"
           id="path2045"
           inkscape:connector-curvature="0" /></g><g
         id="g2051"
         transform="translate(974.33198,173.26241)"><path
           d="m 0,0 c -6.096,-2.902 -10.76,-10.519 -7.954,-17.135 1.449,-3.418 3.941,-4.173 7.214,-5.597 3.538,-1.539 5.642,-0.982 9.255,-0.075 10.412,2.613 9.599,16.604 1.683,21.748 C 6.206,1.535 4.506,0.411 0,0"
           style="fill:#636363;fill-opacity:1;fill-rule:nonzero;stroke:none"
           id="path2049"
           inkscape:connector-curvature="0" /></g><g
         id="g2055"
         transform="translate(1028.8604,173.26241)"><path
           d="m 0,0 c -6.096,-2.902 -10.76,-10.519 -7.954,-17.135 1.449,-3.418 3.941,-4.173 7.214,-5.597 3.538,-1.539 5.642,-0.982 9.255,-0.075 10.412,2.613 9.599,16.604 1.683,21.748 C 6.206,1.535 4.506,0.411 0,0"
           style="fill:#636363;fill-opacity:1;fill-rule:nonzero;stroke:none"
           id="path2053"
           inkscape:connector-curvature="0" /></g><g
         id="g2059"
         transform="translate(999.30678,199.06971)"><path
           d="m 0,0 c -6.096,-2.902 -10.76,-10.519 -7.954,-17.135 1.449,-3.418 3.941,-4.173 7.214,-5.597 3.538,-1.539 5.642,-0.982 9.255,-0.075 10.412,2.613 9.599,16.604 1.683,21.748 C 6.206,1.535 4.506,0.411 0,0"
           style="fill:#636363;fill-opacity:1;fill-rule:nonzero;stroke:none"
           id="path2057"
           inkscape:connector-curvature="0" /></g></g><g
       id="g2091"
       transform="translate(-794.59635,400.29439)"
       inkscape:transform-center-x="-465.01261"
       inkscape:transform-center-y="330.78217"><g
         transform="translate(1059.4643,233.64451)"
         id="g2065"><path
           inkscape:connector-curvature="0"
           id="path2063"
           style="fill:#d3d3d3;fill-opacity:1;fill-rule:nonzero;stroke:none"
           d="m 0,0 c -0.724,12.938 -17.267,13.34 -26.861,13.542 -8.682,0.182 -17.363,0.03 -26.036,-0.355 -1.945,-0.086 -3.888,-0.185 -5.832,-0.293 -0.18,-38.424 -1.09,-76.831 2.128,-115.04 12.22,0.135 24.436,0.569 36.712,0.555 11.751,-0.012 18.164,4.51 19.815,17.107 C 3.593,-56.494 1.57,-28.068 0,0" /></g><g
         transform="translate(1000.7356,246.53831)"
         id="g2069"><path
           inkscape:connector-curvature="0"
           id="path2067"
           style="fill:#bababa;fill-opacity:1;fill-rule:nonzero;stroke:none"
           d="m 0,0 c -6.077,-0.339 -12.148,-0.779 -18.21,-1.287 -10.959,-0.918 -26.943,0.376 -34.218,-9.73 -5.182,-7.198 -3.039,-21.651 -3.149,-30.044 -0.242,-18.311 0.504,-36.59 2.823,-54.762 1.787,-13.926 9.999,-17.383 22.923,-18.393 10.684,-0.834 21.323,-0.942 31.958,-0.824 C -1.091,-76.83 -0.181,-38.424 0,0" /></g><g
         transform="translate(972.66698,224.04451)"
         id="g2073"><path
           inkscape:connector-curvature="0"
           id="path2071"
           style="fill:#636363;fill-opacity:1;fill-rule:nonzero;stroke:none"
           d="m 0,0 c -6.096,-2.902 -10.76,-10.519 -7.954,-17.135 1.449,-3.418 3.941,-4.173 7.214,-5.597 3.538,-1.539 5.642,-0.982 9.255,-0.075 10.412,2.613 9.599,16.604 1.683,21.748 C 6.206,1.535 4.506,0.411 0,0" /></g><g
         transform="translate(1025.9466,224.87701)"
         id="g2077"><path
           inkscape:connector-curvature="0"
           id="path2075"
           style="fill:#636363;fill-opacity:1;fill-rule:nonzero;stroke:none"
           d="m 0,0 c -6.096,-2.902 -10.76,-10.519 -7.954,-17.135 1.449,-3.418 3.941,-4.173 7.214,-5.597 3.538,-1.539 5.642,-0.982 9.255,-0.075 10.412,2.613 9.599,16.604 1.683,21.748 C 6.206,1.535 4.506,0.411 0,0" /></g><g
         transform="translate(974.33198,173.26241)"
         id="g2081"><path
           inkscape:connector-curvature="0"
           id="path2079"
           style="fill:#636363;fill-opacity:1;fill-rule:nonzero;stroke:none"
           d="m 0,0 c -6.096,-2.902 -10.76,-10.519 -7.954,-17.135 1.449,-3.418 3.941,-4.173 7.214,-5.597 3.538,-1.539 5.642,-0.982 9.255,-0.075 10.412,2.613 9.599,16.604 1.683,21.748 C 6.206,1.535 4.506,0.411 0,0" /></g><g
         transform="translate(1028.8604,173.26241)"
         id="g2085"><path
           inkscape:connector-curvature="0"
           id="path2083"
           style="fill:#636363;fill-opacity:1;fill-rule:nonzero;stroke:none"
           d="m 0,0 c -6.096,-2.902 -10.76,-10.519 -7.954,-17.135 1.449,-3.418 3.941,-4.173 7.214,-5.597 3.538,-1.539 5.642,-0.982 9.255,-0.075 10.412,2.613 9.599,16.604 1.683,21.748 C 6.206,1.535 4.506,0.411 0,0" /></g><g
         transform="translate(973.80678,199.06971)"
         id="g2089"><path
           inkscape:connector-curvature="0"
           id="path2087"
           style="fill:#636363;fill-opacity:1;fill-rule:nonzero;stroke:none"
           d="m 0,0 c -6.096,-2.902 -10.76,-10.519 -7.954,-17.135 1.449,-3.418 3.941,-4.173 7.214,-5.597 3.538,-1.539 5.642,-0.982 9.255,-0.075 10.412,2.613 9.599,16.604 1.683,21.748 C 6.206,1.535 4.506,0.411 0,0" /></g><g
         id="g2095"
         transform="translate(1027.8068,199.06971)"><path
           d="m 0,0 c -6.096,-2.902 -10.76,-10.519 -7.954,-17.135 1.449,-3.418 3.941,-4.173 7.214,-5.597 3.538,-1.539 5.642,-0.982 9.255,-0.075 10.412,2.613 9.599,16.604 1.683,21.748 C 6.206,1.535 4.506,0.411 0,0"
           style="fill:#636363;fill-opacity:1;fill-rule:nonzero;stroke:none"
           id="path2093"
           inkscape:connector-curvature="0" /></g></g></g></svg>