<?xml version="1.0" encoding="UTF-8" standalone="no"?>
<svg
   xmlns:dc="http://purl.org/dc/elements/1.1/"
   xmlns:cc="http://creativecommons.org/ns#"
   xmlns:rdf="http://www.w3.org/1999/02/22-rdf-syntax-ns#"
   xmlns:svg="http://www.w3.org/2000/svg"
   xmlns="http://www.w3.org/2000/svg"
   xmlns:sodipodi="http://sodipodi.sourceforge.net/DTD/sodipodi-0.dtd"
   xmlns:inkscape="http://www.inkscape.org/namespaces/inkscape"
   id="Layer_3"
   enable-background="new 0 0 64 64"
   height="512"
   viewBox="0 0 64 64"
   width="512"
   version="1.1"
   sodipodi:docname="dice2.svg"
   inkscape:version="0.92.3 (2405546, 2018-03-11)">
  <metadata
     id="metadata69">
    <rdf:RDF>
      <cc:Work
         rdf:about="">
        <dc:format>image/svg+xml</dc:format>
        <dc:type
           rdf:resource="http://purl.org/dc/dcmitype/StillImage" />
        <dc:title></dc:title>
      </cc:Work>
    </rdf:RDF>
  </metadata>
  <defs
     id="defs67" />
  <sodipodi:namedview
     pagecolor="#ffffff"
     bordercolor="#666666"
     borderopacity="1"
     objecttolerance="10"
     gridtolerance="10"
     guidetolerance="10"
     inkscape:pageopacity="0"
     inkscape:pageshadow="2"
     inkscape:window-width="1920"
     inkscape:window-height="1024"
     id="namedview65"
     showgrid="false"
     showguides="false"
     inkscape:zoom="0.65186406"
     inkscape:cx="138.37934"
     inkscape:cy="158.8467"
     inkscape:window-x="0"
     inkscape:window-y="0"
     inkscape:window-maximized="1"
     inkscape:current-layer="Layer_3" />
  <g
     id="g62">
    <path
       d="m -47.084746,48.440678 h -28 c -2.209,0 -4,-1.791 -4,-4 v -28 c 0,-2.209 1.791,-4 4,-4 h 28 c 2.209,0 4,1.791 4,4 v 28 c 0,2.209 -1.791,4 -4,4 z"
       id="path16"
       inkscape:connector-curvature="0"
       style="fill:#a8b0bc" />
    <path
       d="m -79.084746,16.440678 v 28 c 0,2.209 1.791,4 4,4 h 7.58 c 11.132,-3.14 19.294,-13.363 19.294,-25.5 0,-3.731 -0.775,-7.28 -2.166,-10.5 h -24.708 c -2.209,0 -4,1.791 -4,4 z"
       id="path18"
       inkscape:connector-curvature="0"
       style="fill:#c1c8d1" />
    <path
       d="m -48.084746,45.440678 h -26 c -1.105,0 -2,-0.895 -2,-2 v -26 c 0,-1.105 0.895,-2 2,-2 h 26 c 1.105,0 2,0.895 2,2 v 26 c 0,1.105 -0.895,2 -2,2 z"
       id="path20"
       inkscape:connector-curvature="0"
       style="fill:#d5cec2" />
    <path
       d="m -76.084746,17.440678 v 26 c 0,1.105 0.895,2 2,2 h 13.37 c 7.506,-4.679 12.504,-13.004 12.504,-22.5 0,-2.606 -0.383,-5.121 -1.083,-7.5 h -24.791 c -1.105,0 -2,0.895 -2,2 z"
       id="path22"
       inkscape:connector-curvature="0"
       style="fill:#e7e4dd" />
    <circle
       cx="-69.084747"
       cy="22.440678"
       r="3"
       id="circle24"
       style="fill:#000000;fill-opacity:1" />
    <circle
       cx="-53.084747"
       cy="38.440678"
       r="3"
       id="circle26"
       style="fill:#000000;fill-opacity:1" />
    <circle
       style="fill:#000000;fill-opacity:1"
       id="circle878"
       r="3"
       cy="22.440678"
       cx="-53.334747" />
    <circle
       cx="-61.084747"
       cy="30.440678"
       r="3"
       id="circle880"
       style="fill:#000000;fill-opacity:1" />
    <circle
       style="fill:#000000;fill-opacity:1"
       id="circle882"
       r="3"
       cy="38.190678"
       cx="-69.084747" />
    <g
       id="g60">
      <path
         d="m -48.085746,14.440678 h -25.999 c -1.654,0 -3,1.346 -3,3 v 26 c 0,1.654 1.346,3 3,3 h 25.999 c 1.654,0 3,-1.346 3,-3 v -26 c 0,-1.655 -1.346,-3 -3,-3 z m 1,28.999 c 0,0.552 -0.448,1 -1,1 h -25.999 c -0.552,0 -1,-0.448 -1,-1 v -25.999 c 0,-0.552 0.448,-1 1,-1 h 25.999 c 0.552,0 1,0.448 1,1 z"
         id="path42"
         inkscape:connector-curvature="0" />
    </g>
    <path
       style="fill:#a8b0bc"
       inkscape:connector-curvature="0"
       id="path884"
       d="m -47.084746,8.9385771 h -28 c -2.209,0 -4,-1.791 -4,-4 V -23.061423 c 0,-2.209 1.791,-4 4,-4 h 28 c 2.209,0 4,1.791 4,4 V 4.9385771 c 0,2.209 -1.791,4 -4,4 z" />
    <path
       style="fill:#c1c8d1"
       inkscape:connector-curvature="0"
       id="path886"
       d="M -79.084746,-23.061423 V 4.9385771 c 0,2.209 1.791,4 4,4 h 7.58 c 11.132,-3.14 19.294,-13.363 19.294,-25.5000001 0,-3.731 -0.775,-7.28 -2.166,-10.5 h -24.708 c -2.209,0 -4,1.791 -4,4 z" />
    <path
       style="fill:#d5cec2"
       inkscape:connector-curvature="0"
       id="path888"
       d="m -48.084746,5.9385771 h -26 c -1.105,0 -2,-0.895 -2,-2 V -22.061423 c 0,-1.105 0.895,-2 2,-2 h 26 c 1.105,0 2,0.895 2,2 V 3.9385771 c 0,1.105 -0.895,2 -2,2 z" />
    <path
       style="fill:#e7e4dd"
       inkscape:connector-curvature="0"
       id="path890"
       d="M -76.084746,-22.061423 V 3.9385771 c 0,1.105 0.895,2 2,2 h 13.37 c 7.506,-4.679 12.504,-13.004 12.504,-22.5000001 0,-2.606 -0.383,-5.121 -1.083,-7.5 h -24.791 c -1.105,0 -2,0.895 -2,2 z" />
    <circle
       style="fill:#000000;fill-opacity:1"
       id="circle898"
       r="3"
       cy="-9.0614233"
       cx="-61.084747" />
    <g
       id="g916"
       transform="translate(0,-39.502101)">
      <path
         inkscape:connector-curvature="0"
         id="path902"
         d="m -48.085746,14.440678 h -25.999 c -1.654,0 -3,1.346 -3,3 v 26 c 0,1.654 1.346,3 3,3 h 25.999 c 1.654,0 3,-1.346 3,-3 v -26 c 0,-1.655 -1.346,-3 -3,-3 z m 1,28.999 c 0,0.552 -0.448,1 -1,1 h -25.999 c -0.552,0 -1,-0.448 -1,-1 v -25.999 c 0,-0.552 0.448,-1 1,-1 h 25.999 c 0.552,0 1,0.448 1,1 z" />
    </g>
    <path
       d="m -6.815614,7.9797882 h -28 c -2.209,0 -4,-1.791 -4,-4 V -24.020212 c 0,-2.209 1.791,-4 4,-4 h 28 c 2.209,0 4,1.791 4,4 V 3.9797882 c 0,2.209 -1.791,4 -4,4 z"
       id="path918"
       inkscape:connector-curvature="0"
       style="fill:#a8b0bc" />
    <path
       d="M -38.815614,-24.020212 V 3.9797882 c 0,2.209 1.791,4 4,4 h 7.58 c 11.132,-3.14 19.294,-13.363 19.294,-25.5000002 0,-3.731 -0.775,-7.28 -2.166,-10.5 h -24.708 c -2.209,0 -4,1.791 -4,4 z"
       id="path920"
       inkscape:connector-curvature="0"
       style="fill:#c1c8d1" />
    <path
       d="m -7.815614,4.9797882 h -26 c -1.105,0 -2,-0.895 -2,-2 V -23.020212 c 0,-1.105 0.895,-2 2,-2 h 26 c 1.105,0 2,0.895 2,2 V 2.9797882 c 0,1.105 -0.895,2 -2,2 z"
       id="path922"
       inkscape:connector-curvature="0"
       style="fill:#d5cec2" />
    <path
       d="M -35.815614,-23.020212 V 2.9797882 c 0,1.105 0.895,2 2,2 h 13.37 c 7.506,-4.67899996 12.504,-13.004 12.504,-22.5000002 0,-2.606 -0.383,-5.121 -1.083,-7.5 h -24.791 c -1.105,0 -2,0.895 -2,2 z"
       id="path924"
       inkscape:connector-curvature="0"
       style="fill:#e7e4dd" />
    <circle
       cx="-28.815615"
       cy="-18.02021"
       r="3"
       id="circle926"
       style="fill:#000000;fill-opacity:1" />
    <circle
       cx="-12.815616"
       cy="-2.0202119"
       r="3"
       id="circle928"
       style="fill:#000000;fill-opacity:1" />
    <g
       transform="translate(40.269132,-40.46089)"
       id="g950">
      <path
         d="m -48.085746,14.440678 h -25.999 c -1.654,0 -3,1.346 -3,3 v 26 c 0,1.654 1.346,3 3,3 h 25.999 c 1.654,0 3,-1.346 3,-3 v -26 c 0,-1.655 -1.346,-3 -3,-3 z m 1,28.999 c 0,0.552 -0.448,1 -1,1 h -25.999 c -0.552,0 -1,-0.448 -1,-1 v -25.999 c 0,-0.552 0.448,-1 1,-1 h 25.999 c 0.552,0 1,0.448 1,1 z"
         id="path936"
         inkscape:connector-curvature="0" />
    </g>
    <path
       style="fill:#a8b0bc"
       inkscape:connector-curvature="0"
       id="path952"
       d="M 32.878245,7.4045149 H 4.8782446 c -2.209,0 -3.99999996,-1.791 -3.99999996,-4 V -24.595485 c 0,-2.209 1.79099996,-4 3.99999996,-4 H 32.878245 c 2.209,0 4,1.791 4,4 V 3.4045149 c 0,2.209 -1.791,4 -4,4 z" />
    <path
       style="fill:#c1c8d1"
       inkscape:connector-curvature="0"
       id="path954"
       d="M 0.87824464,-24.595485 V 3.4045149 c 0,2.209 1.79099996,4 3.99999996,4 h 7.5800004 c 11.132,-3.14 19.294,-13.363 19.294,-25.4999999 0,-3.731 -0.775,-7.28 -2.166,-10.5 H 4.8782446 c -2.209,0 -3.99999996,1.791 -3.99999996,4 z" />
    <path
       style="fill:#d5cec2"
       inkscape:connector-curvature="0"
       id="path956"
       d="M 31.878245,4.4045149 H 5.8782446 c -1.105,0 -2,-0.895 -2,-2 V -23.595485 c 0,-1.105 0.895,-2 2,-2 H 31.878245 c 1.105,0 2,0.895 2,2 V 2.4045149 c 0,1.105 -0.895,2 -2,2 z" />
    <path
       style="fill:#e7e4dd"
       inkscape:connector-curvature="0"
       id="path958"
       d="M 3.8782446,-23.595485 V 2.4045149 c 0,1.105 0.895,2 2,2 H 19.248245 c 7.506,-4.67899997 12.504,-13.004 12.504,-22.4999999 0,-2.606 -0.383,-5.121 -1.083,-7.5 H 5.8782446 c -1.105,0 -2,0.895 -2,2 z" />
    <circle
       style="fill:#000000;fill-opacity:1"
       id="circle960"
       r="3"
       cy="-18.595484"
       cx="10.878244" />
    <circle
       style="fill:#000000;fill-opacity:1"
       id="circle962"
       r="3"
       cy="-2.5954852"
       cx="26.878242" />
    <circle
       style="fill:#000000;fill-opacity:1"
       id="circle966"
       r="3"
       cy="-10.595486"
       cx="18.878244" />
    <g
       id="g984"
       transform="translate(79.962991,-41.036163)">
      <path
         inkscape:connector-curvature="0"
         id="path970"
         d="m -48.085746,14.440678 h -25.999 c -1.654,0 -3,1.346 -3,3 v 26 c 0,1.654 1.346,3 3,3 h 25.999 c 1.654,0 3,-1.346 3,-3 v -26 c 0,-1.655 -1.346,-3 -3,-3 z m 1,28.999 c 0,0.552 -0.448,1 -1,1 h -25.999 c -0.552,0 -1,-0.448 -1,-1 v -25.999 c 0,-0.552 0.448,-1 1,-1 h 25.999 c 0.552,0 1,0.448 1,1 z" />
    </g>
    <path
       d="m 72.188588,6.8292416 h -28 c -2.209,0 -4,-1.791 -4,-4 V -25.170758 c 0,-2.209 1.791,-4 4,-4 h 28 c 2.209,0 4,1.791 4,4 V 2.8292416 c 0,2.209 -1.791,4 -4,4 z"
       id="path986"
       inkscape:connector-curvature="0"
       style="fill:#a8b0bc" />
    <path
       d="M 40.188588,-25.170758 V 2.8292416 c 0,2.209 1.791,4 4,4 h 7.58 c 11.132,-3.14 19.294,-13.363 19.294,-25.4999996 0,-3.731 -0.775,-7.28 -2.166,-10.5 h -24.708 c -2.209,0 -4,1.791 -4,4 z"
       id="path988"
       inkscape:connector-curvature="0"
       style="fill:#c1c8d1" />
    <path
       d="m 71.188588,3.8292416 h -26 c -1.105,0 -2,-0.895 -2,-2 V -24.170758 c 0,-1.105 0.895,-2 2,-2 h 26 c 1.105,0 2,0.895 2,2 V 1.8292416 c 0,1.105 -0.895,2 -2,2 z"
       id="path990"
       inkscape:connector-curvature="0"
       style="fill:#d5cec2" />
    <path
       d="M 43.188588,-24.170758 V 1.8292416 c 0,1.105 0.895,2 2,2 h 13.37 c 7.506,-4.67899998 12.504,-13.004 12.504,-22.4999996 0,-2.606 -0.383,-5.121 -1.083,-7.5 h -24.791 c -1.105,0 -2,0.895 -2,2 z"
       id="path992"
       inkscape:connector-curvature="0"
       style="fill:#e7e4dd" />
    <circle
       cx="50.188587"
       cy="-19.170757"
       r="3"
       id="circle994"
       style="fill:#000000;fill-opacity:1" />
    <circle
       cx="66.188583"
       cy="-3.1707585"
       r="3"
       id="circle996"
       style="fill:#000000;fill-opacity:1" />
    <circle
       style="fill:#000000;fill-opacity:1"
       id="circle998"
       r="3"
       cy="-19.170757"
       cx="65.938583" />
    <circle
       style="fill:#000000;fill-opacity:1"
       id="circle1002"
       r="3"
       cy="-3.4207585"
       cx="50.188587" />
    <g
       transform="translate(119.27333,-41.611436)"
       id="g1018">
      <path
         d="m -48.085746,14.440678 h -25.999 c -1.654,0 -3,1.346 -3,3 v 26 c 0,1.654 1.346,3 3,3 h 25.999 c 1.654,0 3,-1.346 3,-3 v -26 c 0,-1.655 -1.346,-3 -3,-3 z m 1,28.999 c 0,0.552 -0.448,1 -1,1 h -25.999 c -0.552,0 -1,-0.448 -1,-1 v -25.999 c 0,-0.552 0.448,-1 1,-1 h 25.999 c 0.552,0 1,0.448 1,1 z"
         id="path1004"
         inkscape:connector-curvature="0" />
    </g>
    <path
       style="fill:#a8b0bc"
       inkscape:connector-curvature="0"
       id="path1020"
       d="M -6.0485827,48.824193 H -34.048583 c -2.209,0 -4,-1.791 -4,-4 V 16.824194 c 0,-2.209 1.791,-4 4,-4 h 28.0000003 c 2.209,0 4,1.791 4,4 v 27.999999 c 0,2.209 -1.791,4 -4,4 z" />
    <path
       style="fill:#c1c8d1"
       inkscape:connector-curvature="0"
       id="path1022"
       d="m -38.048583,16.824194 v 27.999999 c 0,2.209 1.791,4 4,4 h 7.58 c 11.132,-3.14 19.2940003,-13.363 19.2940003,-25.499999 0,-3.731 -0.775,-7.28 -2.166,-10.5 H -34.048583 c -2.209,0 -4,1.791 -4,4 z" />
    <path
       style="fill:#d5cec2"
       inkscape:connector-curvature="0"
       id="path1024"
       d="M -7.0485827,45.824193 H -33.048583 c -1.105,0 -2,-0.895 -2,-2 V 17.824194 c 0,-1.105 0.895,-2 2,-2 h 26.0000003 c 1.105,0 2,0.895 2,2 v 25.999999 c 0,1.105 -0.895,2 -2,2 z" />
    <path
       style="fill:#e7e4dd"
       inkscape:connector-curvature="0"
       id="path1026"
       d="m -35.048583,17.824194 v 25.999999 c 0,1.105 0.895,2 2,2 h 13.37 c 7.506,-4.678999 12.5040003,-13.004 12.5040003,-22.499999 0,-2.606 -0.383,-5.121 -1.083,-7.5 H -33.048583 c -1.105,0 -2,0.895 -2,2 z" />
    <circle
       style="fill:#000000;fill-opacity:1"
       id="circle1028"
       r="3"
       cy="22.824194"
       cx="-28.048584" />
    <circle
       style="fill:#000000;fill-opacity:1"
       id="circle1030"
       r="3"
       cy="38.824192"
       cx="-12.048587" />
    <circle
       cx="-12.298587"
       cy="22.824194"
       r="3"
       id="circle1032"
       style="fill:#000000;fill-opacity:1" />
    <circle
       style="fill:#000000;fill-opacity:1"
       id="circle1034"
       r="3"
       cy="30.824192"
       cx="-12.048584" />
    <circle
       cx="-28.048584"
       cy="38.574192"
       r="3"
       id="circle1036"
       style="fill:#000000;fill-opacity:1" />
    <circle
       cx="-28.048584"
       cy="30.824192"
       r="3"
       id="circle1058"
       style="fill:#000000;fill-opacity:1" />
    <g
       id="g1052"
       transform="translate(41.036159,0.3835159)">
      <path
         inkscape:connector-curvature="0"
         id="path1038"
         d="m -48.085746,14.440678 h -25.999 c -1.654,0 -3,1.346 -3,3 v 26 c 0,1.654 1.346,3 3,3 h 25.999 c 1.654,0 3,-1.346 3,-3 v -26 c 0,-1.655 -1.346,-3 -3,-3 z m 1,28.999 c 0,0.552 -0.448,1 -1,1 h -25.999 c -0.552,0 -1,-0.448 -1,-1 v -25.999 c 0,-0.552 0.448,-1 1,-1 h 25.999 c 0.552,0 1,0.448 1,1 z" />
    </g>
  </g>
</svg>
